<svg xmlns="http://www.w3.org/2000/svg" viewBox="0 0 760 420" width="760" height="420">
  <defs>
    <marker id="arrow" viewBox="0 0 10 10" refX="9" refY="5" markerWidth="6" markerHeight="6" orient="auto-start-reverse">
      <path d="M 0 0 L 10 5 L 0 10 z" fill="#6366f1"/>
    </marker>
    <marker id="arrow-fail" viewBox="0 0 10 10" refX="9" refY="5" markerWidth="6" markerHeight="6" orient="auto-start-reverse">
      <path d="M 0 0 L 10 5 L 0 10 z" fill="#ef4444"/>
    </marker>
    <marker id="arrow-pass" viewBox="0 0 10 10" refX="9" refY="5" markerWidth="6" markerHeight="6" orient="auto-start-reverse">
      <path d="M 0 0 L 10 5 L 0 10 z" fill="#22c55e"/>
    </marker>
  </defs>

  <!-- Background -->
  <rect width="760" height="420" fill="#0f172a" rx="8"/>

  <!-- Nodes -->
  <rect x="30" y="175" width="90" height="40" rx="6" fill="#1e293b" stroke="#334155" stroke-width="1.5"/>
  <text x="75" y="200" text-anchor="middle" fill="#e2e8f0" font-family="monospace" font-size="11">Corpus</text>

  <rect x="170" y="170" width="80" height="50" rx="8" fill="#1e293b" stroke="#334155" stroke-width="1.5"/>
  <text x="210" y="200" text-anchor="middle" fill="#e2e8f0" font-family="monospace" font-size="11">Reference</text>
  <text x="210" y="214" text-anchor="middle" fill="#e2e8f0" font-family="monospace" font-size="11">Store</text>

  <rect x="300" y="175" width="80" height="40" rx="6" fill="#1e293b" stroke="#334155" stroke-width="1.5"/>
  <text x="340" y="200" text-anchor="middle" fill="#e2e8f0" font-family="monospace" font-size="11">Planner</text>

  <rect x="430" y="175" width="100" height="40" rx="6" fill="#1e293b" stroke="#334155" stroke-width="1.5"/>
  <text x="480" y="200" text-anchor="middle" fill="#e2e8f0" font-family="monospace" font-size="11">Workers</text>

  <rect x="580" y="175" width="100" height="40" rx="6" fill="#1e293b" stroke="#334155" stroke-width="1.5"/>
  <text x="630" y="200" text-anchor="middle" fill="#e2e8f0" font-family="monospace" font-size="11">Evidence</text>

  <rect x="430" y="270" width="100" height="40" rx="6" fill="#1e293b" stroke="#334155" stroke-width="1.5"/>
  <text x="480" y="295" text-anchor="middle" fill="#e2e8f0" font-family="monospace" font-size="11">Synthesizer</text>

  <rect x="580" y="270" width="80" height="40" rx="6" fill="#1e293b" stroke="#334155" stroke-width="1.5"/>
  <text x="620" y="295" text-anchor="middle" fill="#e2e8f0" font-family="monospace" font-size="11">Verifier</text>

  <polygon points="660,310 700,290 700,330" fill="#1e293b" stroke="#334155" stroke-width="1.5"/>
  <text x="680" y="315" text-anchor="middle" fill="#e2e8f0" font-family="monospace" font-size="9">Gate</text>

  <rect x="310" y="360" width="140" height="40" rx="6" fill="#1e3a5f" stroke="#334155" stroke-width="1.5"/>
  <text x="380" y="385" text-anchor="middle" fill="#93c5fd" font-family="monospace" font-size="10">Final Answer + Report</text>

  <!-- Arrows -->
  <line x1="120" y1="195" x2="168" y2="195" stroke="#6366f1" stroke-width="1.5" marker-end="url(#arrow)"/>
  <line x1="250" y1="195" x2="298" y2="195" stroke="#6366f1" stroke-width="1.5" marker-end="url(#arrow)"/>
  <line x1="380" y1="195" x2="428" y2="195" stroke="#6366f1" stroke-width="1.5" marker-end="url(#arrow)"/>
  <line x1="530" y1="195" x2="578" y2="195" stroke="#6366f1" stroke-width="1.5" marker-end="url(#arrow)"/>

  <!-- Evidence to Synthesizer -->
  <path d="M 630 215 L 630 245 L 530 245 L 530 268" fill="none" stroke="#6366f1" stroke-width="1.5" marker-end="url(#arrow)"/>

  <!-- Synthesizer to Verifier -->
  <line x1="530" y1="290" x2="578" y2="290" stroke="#6366f1" stroke-width="1.5" marker-end="url(#arrow)"/>

  <!-- Gate fail back to Planner -->
  <path d="M 670 310 L 670 245 L 380 245 L 380 218" fill="none" stroke="#ef4444" stroke-width="1.5" stroke-dasharray="5,3" marker-end="url(#arrow-fail)"/>
  <text x="630" y="248" fill="#ef4444" font-family="monospace" font-size="9">Fail</text>

  <!-- Gate pass to final -->
  <line x1="680" y1="310" x2="680" y2="345" stroke="#22c55e" stroke-width="1.5"/>
  <line x1="680" y1="345" x2="450" y2="380" stroke="#22c55e" stroke-width="1.5" marker-end="url(#arrow-pass)"/>
  <text x="555" y="370" fill="#22c55e" font-family="monospace" font-size="9">Pass</text>
</svg>
